<svg width="640" height="420" viewBox="0 0 640 420" fill="none" xmlns="http://www.w3.org/2000/svg">
  <defs>
    <linearGradient id="panelBg2" x1="1" y1="0" x2="0" y2="1">
      <stop offset="0%" stop-color="#0E253F" />
      <stop offset="100%" stop-color="#0D1935" />
    </linearGradient>
    <linearGradient id="panelBeam2" x1="0" y1="0" x2="1" y2="0">
      <stop offset="0%" stop-color="#F3B3FF" stop-opacity="0.4" />
      <stop offset="100%" stop-color="#6BE5FF" stop-opacity="0.25" />
    </linearGradient>
  </defs>
  <rect width="640" height="420" rx="24" fill="url(#panelBg2)" />
  <rect x="32" y="40" width="576" height="340" rx="20" stroke="#9DDCFF" stroke-opacity="0.2" stroke-width="2" />
  <rect x="60" y="70" width="520" height="280" rx="18" fill="#0F1B3D" fill-opacity="0.9" stroke="#7CE4FF" stroke-opacity="0.22" stroke-width="1.5" />
  <rect x="100" y="98" width="180" height="30" rx="10" fill="url(#panelBeam2)" />
  <rect x="100" y="138" width="440" height="12" rx="6" fill="#1A2F5A" />
  <rect x="100" y="162" width="440" height="12" rx="6" fill="#1B3364" />
  <rect x="100" y="186" width="440" height="12" rx="6" fill="#1D3A70" />
  <rect x="100" y="222" width="140" height="24" rx="10" fill="#173459" />
  <rect x="260" y="222" width="140" height="24" rx="10" fill="#173459" />
  <rect x="420" y="222" width="120" height="24" rx="10" fill="#173459" />
  <rect x="196" y="252" width="248" height="48" rx="14" fill="url(#panelBeam2)" />
</svg>
