<svg width="1600" height="700" viewBox="0 0 1600 700" fill="none" xmlns="http://www.w3.org/2000/svg">
  <defs>
    <linearGradient id="bg2" x1="0" y1="0" x2="1" y2="1">
      <stop offset="0%" stop-color="#050915"/>
      <stop offset="100%" stop-color="#0F1F45"/>
    </linearGradient>
    <linearGradient id="pulse" x1="0" y1="0" x2="1" y2="0">
      <stop offset="0%" stop-color="#36D1DC"/>
      <stop offset="100%" stop-color="#5B86E5"/>
    </linearGradient>
  </defs>
  <rect width="1600" height="700" rx="28" fill="url(#bg2)"/>
  <rect x="140" y="110" width="1320" height="480" rx="22" stroke="#4CC0FF" stroke-opacity="0.28" stroke-width="2"/>
  <rect x="200" y="170" width="560" height="350" rx="18" fill="#0B132B" stroke="#5B86E5" stroke-opacity="0.45" stroke-width="2"/>
  <rect x="840" y="170" width="520" height="350" rx="18" fill="#0B132B" stroke="#36D1DC" stroke-opacity="0.35" stroke-width="2"/>
  <path d="M260 240H700" stroke="#6BE9FF" stroke-width="3" stroke-dasharray="12 10" stroke-opacity="0.4"/>
  <path d="M260 300H700" stroke="#6BE9FF" stroke-width="3" stroke-dasharray="12 10" stroke-opacity="0.4"/>
  <rect x="300" y="330" width="380" height="46" rx="12" fill="url(#pulse)" fill-opacity="0.8"/>
  <path d="M900 240H1300" stroke="#7F8CFF" stroke-width="3" stroke-dasharray="12 10" stroke-opacity="0.4"/>
  <path d="M900 300H1300" stroke="#7F8CFF" stroke-width="3" stroke-dasharray="12 10" stroke-opacity="0.4"/>
  <rect x="940" y="330" width="340" height="46" rx="12" fill="#13295C" stroke="#7F8CFF" stroke-opacity="0.55" stroke-width="2"/>
  <rect x="980" y="410" width="260" height="38" rx="12" fill="url(#pulse)"/>
  <circle cx="220" cy="170" r="12" fill="#36D1DC"/>
  <circle cx="222" cy="516" r="10" fill="#5B86E5"/>
  <circle cx="1380" cy="170" r="12" fill="#5B86E5"/>
  <circle cx="1378" cy="516" r="10" fill="#36D1DC"/>
  <path d="M222 182V504" stroke="#36D1DC" stroke-opacity="0.45" stroke-width="3" stroke-dasharray="18 10"/>
  <path d="M1378 182V504" stroke="#5B86E5" stroke-opacity="0.45" stroke-width="3" stroke-dasharray="18 10"/>
</svg>
