<svg width="1600" height="900" viewBox="0 0 1600 900" fill="none" xmlns="http://www.w3.org/2000/svg">
  <defs>
    <linearGradient id="bg" x1="0" y1="0" x2="1" y2="1">
      <stop offset="0%" stop-color="#0A1234"/>
      <stop offset="50%" stop-color="#0C1F55"/>
      <stop offset="100%" stop-color="#0F2D7A"/>
    </linearGradient>
    <linearGradient id="glow" x1="0" y1="0" x2="1" y2="0">
      <stop offset="0%" stop-color="#5AF0FF" stop-opacity="0.65"/>
      <stop offset="100%" stop-color="#8C7BFF" stop-opacity="0.9"/>
    </linearGradient>
  </defs>
  <rect width="1600" height="900" fill="url(#bg)" rx="24"/>
  <rect x="140" y="120" width="1320" height="660" stroke="#FFFFFF" stroke-opacity="0.08" stroke-width="2" rx="28"/>
  <rect x="200" y="180" width="1240" height="540" stroke="#9BE8FF" stroke-opacity="0.12" stroke-width="2" rx="20"/>
  <rect x="230" y="210" width="1180" height="120" fill="#0E173B" fill-opacity="0.85" stroke="#54D2FF" stroke-opacity="0.35" stroke-width="2" rx="16"/>
  <rect x="260" y="246" width="290" height="48" rx="12" fill="url(#glow)" fill-opacity="0.65"/>
  <rect x="1060" y="246" width="280" height="48" rx="12" fill="#0E173B" stroke="#5AF0FF" stroke-opacity="0.55" stroke-width="2"/>
  <circle cx="280" cy="320" r="4" fill="#5AF0FF"/>
  <circle cx="310" cy="320" r="4" fill="#7CE7FF"/>
  <circle cx="340" cy="320" r="4" fill="#7C8CFF"/>
  <path d="M360 320H1340" stroke="#1EE6FF" stroke-opacity="0.18" stroke-width="3" stroke-dasharray="18 12"/>
  <g>
    <rect x="260" y="430" width="1080" height="260" rx="24" fill="#0F1C44" fill-opacity="0.75" stroke="#64E1FF" stroke-opacity="0.22" stroke-width="2"/>
  </g>
  <path d="M320 490H1230" stroke="#7BD0FF" stroke-opacity="0.35" stroke-width="2" stroke-dasharray="10 10"/>
  <path d="M320 540H1230" stroke="#7BD0FF" stroke-opacity="0.35" stroke-width="2" stroke-dasharray="10 10"/>
  <path d="M320 590H1230" stroke="#7BD0FF" stroke-opacity="0.35" stroke-width="2" stroke-dasharray="10 10"/>
  <rect x="340" y="620" width="260" height="32" rx="10" fill="#182B62" stroke="#7BD0FF" stroke-opacity="0.45"/>
  <rect x="980" y="620" width="260" height="32" rx="10" fill="#182B62" stroke="#7BD0FF" stroke-opacity="0.45"/>
  <rect x="670" y="610" width="240" height="48" rx="12" fill="url(#glow)" fill-opacity="0.8"/>
  <path d="M420 430C420 380 480 340 540 340H820" stroke="#20F0FF" stroke-opacity="0.4" stroke-width="4" stroke-linecap="round" stroke-dasharray="12 16"/>
  <path d="M1180 430C1180 380 1120 340 1060 340H820" stroke="#9BB0FF" stroke-opacity="0.3" stroke-width="4" stroke-linecap="round" stroke-dasharray="12 16"/>
  <circle cx="820" cy="340" r="12" fill="#8FF0FF" fill-opacity="0.8"/>
  <circle cx="540" cy="340" r="8" fill="#8FF0FF" fill-opacity="0.6"/>
  <circle cx="1060" cy="340" r="8" fill="#8FF0FF" fill-opacity="0.6"/>
</svg>
